<svg xmlns="http://www.w3.org/2000/svg" width="18.465" height="20.4" viewBox="0 0 18.465 20.4">
  <g id="Group_19" data-name="Group 19" transform="translate(-341.943 -411.8)">
    <path id="Path_97942" data-name="Path 97942" d="M206.42,111.883a4.194,4.194,0,1,0-4.194,4.194A4.2,4.2,0,0,0,206.42,111.883Zm-8.064,0a3.871,3.871,0,1,1,3.871,3.871A3.875,3.875,0,0,1,198.355,111.883Zm3.42.472a.323.323,0,0,1-.225.276,2.271,2.271,0,0,0-1.344,1.152.323.323,0,0,1-.577-.288,2.93,2.93,0,0,1,1.2-1.252,1.935,1.935,0,1,1,2.8,0,2.93,2.93,0,0,1,1.2,1.252.323.323,0,0,1-.577.288,2.266,2.266,0,0,0-1.343-1.152.322.322,0,0,1-.059-.591,1.291,1.291,0,1,0-1.234,0,.323.323,0,0,1,.166.315Zm-6.646,9.528a.323.323,0,0,0,.323-.323v-1.936H201.9v1.936a.323.323,0,1,0,.645,0v-1.936H209v1.936a.323.323,0,1,0,.645,0V119.3a.323.323,0,0,0-.323-.323h-6.775V117.35a5.484,5.484,0,1,0-.645,0v1.629h-6.774a.323.323,0,0,0-.323.323v2.258a.323.323,0,0,0,.323.322Zm2.258-10a4.839,4.839,0,1,1,4.839,4.839A4.844,4.844,0,0,1,197.387,111.883Zm-1.066,12.972a1.459,1.459,0,1,0-2.386,0,1.37,1.37,0,0,0-.741,1.221.323.323,0,0,0,.323.323h3.226a.327.327,0,0,0,.323-.327,1.367,1.367,0,0,0-.743-1.217Zm-2.409.9a.729.729,0,0,1,.578-.4,1.263,1.263,0,0,0,.191-.031.322.322,0,0,0,.058-.59.813.813,0,1,1,.776,0,.323.323,0,0,0,.057.59.949.949,0,0,0,.195.031.727.727,0,0,1,.578.4Zm16.6-.9a1.45,1.45,0,0,0-.286-1.974,1.466,1.466,0,0,0-1.249-.277,1.456,1.456,0,0,0-.851,2.251,1.366,1.366,0,0,0-.743,1.22.323.323,0,0,0,.323.323h3.226a.327.327,0,0,0,.323-.328,1.366,1.366,0,0,0-.742-1.215Zm-2.41.9a.728.728,0,0,1,.578-.4,1.265,1.265,0,0,0,.193-.031.322.322,0,0,0,.06-.591.809.809,0,0,1,.189-1.5.81.81,0,0,1,.586,1.5.322.322,0,0,0,.062.591,1.189,1.189,0,0,0,.187.03.727.727,0,0,1,.577.4Zm-4.688-.9a1.459,1.459,0,1,0-2.386,0,1.37,1.37,0,0,0-.741,1.221.323.323,0,0,0,.323.323h3.226a.326.326,0,0,0,.323-.327,1.367,1.367,0,0,0-.744-1.217Zm-2.408.9a.729.729,0,0,1,.578-.4,1.248,1.248,0,0,0,.19-.031.323.323,0,0,0,.059-.591.813.813,0,1,1,.776,0,.323.323,0,0,0,.057.59.922.922,0,0,0,.2.031.726.726,0,0,1,.577.4h-2.431Z" transform="translate(148.949 305.601)" fill="#8d9098" stroke="#8d9098" stroke-width="0.4"/>
  </g>
</svg>
