<svg id="Group_1" data-name="Group 1" xmlns="http://www.w3.org/2000/svg" width="24" height="24" viewBox="0 0 24 24">
  <path id="Path_1" data-name="Path 1" d="M0,0H24V24H0Z" fill="none"/>
  <path id="Path_2" data-name="Path 2" d="M12,2A10,10,0,1,1,2,12,10,10,0,0,1,12,2Zm0,2a8,8,0,1,0,8,8A8,8,0,0,0,12,4Zm0,1a6.973,6.973,0,0,1,2.858.608L13.3,7.17a5,5,0,0,0-4.831,8.366L7.05,16.95l-.156-.161A7,7,0,0,1,12,5Zm6.392,4.143A7.006,7.006,0,0,1,16.95,16.95l-1.414-1.414A5.006,5.006,0,0,0,16.83,10.7Zm-2.15-2.8,1.415,1.414-3.724,3.726a2,2,0,1,1-1.416-1.416l3.726-3.724Z" fill="#8d9098"/>
</svg>
