<svg id="Group_21" data-name="Group 21" xmlns="http://www.w3.org/2000/svg" width="24" height="24" viewBox="0 0 24 24">
  <path id="Path_97943" data-name="Path 97943" d="M0,0H24V24H0Z" fill="none"/>
  <path id="Path_97944" data-name="Path 97944" d="M5.373,4.51a10,10,0,0,1,14.834,13.2L17.5,12H20A8,8,0,0,0,6.274,6.413l-.9-1.9ZM18.627,19.49A10,10,0,0,1,3.793,6.285L6.5,12H4a8,8,0,0,0,13.726,5.587l.9,1.9Zm-5.213-4.662L10.586,12,7.757,14.828,6.343,13.414l4.243-4.242L13.414,12l2.829-2.828,1.414,1.414-4.243,4.242Z" fill="#8d9098"/>
</svg>
