<svg xmlns="http://www.w3.org/2000/svg" width="25" height="20" viewBox="0 0 25 20">
  <g id="noun-customers-4558025" transform="translate(-116.67 -93.332)">
    <path id="Path_97919" data-name="Path 97919" d="M191.668,93.332a5,5,0,1,0,5,5A5.008,5.008,0,0,0,191.668,93.332Zm-3.125,5a3.125,3.125,0,1,1,3.125,3.125A3.133,3.133,0,0,1,188.543,98.332Z" transform="translate(-66.248)" fill="#8d9098" fill-rule="evenodd"/>
    <path id="Path_97920" data-name="Path 97920" d="M122.607,315a5.936,5.936,0,0,0-5.937,5.937v1.25a.938.938,0,0,0,1.875,0v-1.25a4.061,4.061,0,0,1,4.062-4.062h5.625a4.061,4.061,0,0,1,4.062,4.062v1.25a.937.937,0,0,0,1.875,0v-1.25A5.936,5.936,0,0,0,128.233,315Z" transform="translate(0 -209.793)" fill="#8d9098"/>
    <path id="Path_97921" data-name="Path 97921" d="M455,315.938a.938.938,0,0,1,.938-.937,5.936,5.936,0,0,1,5.937,5.937v1.25a.938.938,0,0,1-1.875,0v-1.25a4.061,4.061,0,0,0-4.062-4.062.938.938,0,0,1-.937-.937Z" transform="translate(-320.203 -209.793)" fill="#8d9098"/>
    <path id="Path_97922" data-name="Path 97922" d="M403.438,99.168a.938.938,0,1,0,0,1.875,2.812,2.812,0,1,1,0,5.625.938.938,0,0,0,0,1.875,4.687,4.687,0,1,0,0-9.375Z" transform="translate(-270.518 -5.523)" fill="#8d9098"/>
  </g>
</svg>
