<svg xmlns="http://www.w3.org/2000/svg" width="18.938" height="19.957" viewBox="0 0 18.938 19.957">
  <path id="Path_98166" data-name="Path 98166" d="M10.982,13.974V10.981h2v2.994h4.989a1,1,0,0,1,1,1v5.987a1,1,0,0,1-1,1H5.993a1,1,0,0,1-1-1V14.972a1,1,0,0,1,1-1ZM2.511,8.822a9.983,9.983,0,0,1,18.938,0l-1.894.631a7.986,7.986,0,0,0-15.15,0ZM6.3,10.085a5.99,5.99,0,0,1,11.363,0l-1.894.631a3.993,3.993,0,0,0-7.575,0Zm.692,5.885v3.991h9.978V15.97Z" transform="translate(-2.511 -2)" fill="#8d9098"/>
</svg>
